<svg xmlns="http://www.w3.org/2000/svg" version="1.1" xmlns:xlink="http://www.w3.org/1999/xlink" xmlns:svgjs="http://svgjs.dev/svgjs" width="1500" height="935" viewBox="0 0 1500 935"><g transform="matrix(1,0,0,1,-0.9090909090909918,0.3785425101214628)"><svg viewBox="0 0 396 247" data-background-color="#121212" preserveAspectRatio="xMidYMid meet" height="935" width="1500" xmlns="http://www.w3.org/2000/svg" xmlns:xlink="http://www.w3.org/1999/xlink"><g id="tight-bounds" transform="matrix(1,0,0,1,0.2400000000000091,-0.09999999999999432)"><svg viewBox="0 0 395.52 247.2" height="247.2" width="395.52"><g><svg></svg></g><g><svg viewBox="0 0 395.52 247.2" height="247.2" width="395.52"><g transform="matrix(1,0,0,1,75.54432,63.09718811881188)"><svg viewBox="0 0 244.43135999999998 121.00562376237623" height="121.00562376237623" width="244.43135999999998"><g><svg viewBox="0 0 244.43135999999998 121.00562376237623" height="121.00562376237623" width="244.43135999999998"><g><svg viewBox="0 0 244.43135999999998 121.00562376237623" height="121.00562376237623" width="244.43135999999998"><g><svg viewBox="0 0 244.43135999999998 121.00562376237623" height="121.00562376237623" width="244.43135999999998"><g id="textblocktransform"><svg viewBox="0 0 244.43135999999998 121.00562376237623" height="121.00562376237623" width="244.43135999999998" id="textblock"><g><svg viewBox="0 0 244.43135999999998 121.00562376237623" height="121.00562376237623" width="244.43135999999998"><g transform="matrix(1,0,0,1,0,0)"><svg width="244.43135999999998" viewBox="2.75 -35 70.7 35" height="121.00562376237623" data-palette-color="#e1410d"><path d="M13.15 0L4.1 0Q3.55 0 3.15-0.4 2.75-0.8 2.75-1.35L2.75-1.35 2.75-33.65Q2.75-34.2 3.15-34.6 3.55-35 4.1-35L4.1-35 12-35Q13-35 13.5-34.45 14-33.9 14.15-33.65L14.15-33.65 21.4-21.65 28.65-33.65Q28.8-33.9 29.3-34.45 29.8-35 30.8-35L30.8-35 38.7-35Q39.25-35 39.65-34.6 40.05-34.2 40.05-33.65L40.05-33.65 40.05-1.35Q40.05-0.8 39.65-0.4 39.25 0 38.7 0L38.7 0 29.65 0Q29.1 0 28.7-0.4 28.3-0.8 28.3-1.35L28.3-1.35 28.3-15.05 25-9.65Q24.75-9.25 24.33-8.83 23.9-8.4 23.15-8.4L23.15-8.4 19.65-8.4Q18.9-8.4 18.48-8.83 18.05-9.25 17.8-9.65L17.8-9.65 14.5-15.05 14.5-1.35Q14.5-0.8 14.1-0.4 13.7 0 13.15 0L13.15 0ZM56.45 0L46.9 0Q46.35 0 45.95-0.4 45.55-0.8 45.55-1.35L45.55-1.35 45.55-33.65Q45.55-34.2 45.95-34.6 46.35-35 46.9-35L46.9-35 72.1-35Q72.65-35 73.05-34.6 73.45-34.2 73.45-33.65L73.45-33.65 73.45-26.05Q73.45-25.5 73.05-25.1 72.65-24.7 72.1-24.7L72.1-24.7 57.8-24.7 57.8-21 71.1-21Q71.65-21 72.05-20.6 72.45-20.2 72.45-19.65L72.45-19.65 72.45-12.1Q72.45-11.55 72.05-11.15 71.65-10.75 71.1-10.75L71.1-10.75 57.8-10.75 57.8-1.35Q57.8-0.8 57.4-0.4 57 0 56.45 0L56.45 0Z" opacity="1" transform="matrix(1,0,0,1,0,0)" fill="#e1410d" class="wordmark-text-0" data-fill-palette-color="primary" id="text-0"></path></svg></g></svg></g></svg></g></svg></g></svg></g></svg></g></svg></g><g><path d="M245.816 0c68.262 0 123.6 55.338 123.6 123.6 0 68.262-55.338 123.6-123.6 123.6-40.156 0-75.839-19.149-98.416-48.814l6.951 0c21.666 26.467 54.593 43.358 91.465 43.358 65.249 0 118.144-52.895 118.143-118.144 0-65.249-52.895-118.144-118.143-118.144-36.872 0-69.799 16.891-91.465 43.358l-6.951 0c22.577-29.665 58.26-48.814 98.416-48.814z" fill="#e1410d" stroke="transparent" data-fill-palette-color="tertiary"></path></g></svg></g><defs></defs></svg><rect width="395.52" height="247.2" fill="none" stroke="none" visibility="hidden"></rect></g></svg></g></svg>